<svg id="Layer_1" data-name="Layer 1" xmlns="http://www.w3.org/2000/svg" viewBox="0 0 612 612"><path d="M131.91,195.82v16.49h-16v71.52H98.61V212.31H83V195.82Z"/><path d="M154.27,195.82v29.82c3.53-5.94,7.53-8.18,14.36-8.18q9.36,0,12.71,7.92c1.53,3.43,1.88,7,1.88,16.75v41.7H167.1v-41.7c0-8.57-1.06-10.55-5.65-10.55-5.3,0-7.18,2.9-7.18,10.95v41.3H138.15v-88Z"/><path d="M208.52,254.27v3.43c0,10.42,2.24,14.78,7.77,14.78,4.94,0,7.42-3.17,8.24-11.08L239,262.45c-1.42,7.52-2.95,11.08-6.12,15.17-4.12,5.15-9.65,7.53-16.95,7.53-15.3,0-24.13-12-24.13-33,0-21.77,8.95-34.7,24.13-34.7a20.62,20.62,0,0,1,18.83,11.87c3.29,6.86,4.12,12.27,4.24,24.94Zm15.19-10.42c0-5-.36-7.66-1.18-9.77a6.82,6.82,0,0,0-6.36-4.61c-5.06,0-7.29,4.22-7.53,14.38Z"/><path d="M294.32,195.82c11.3,0,15.77.92,20.12,4.35,5.89,4.49,9.18,12.93,9.18,23.23,0,10.68-3.29,19.13-8.94,23.35-4.59,3.43-9.42,4.62-19.54,4.62H289v32.46H271.84v-88ZM289,236.19h5.3c8,0,11.06-3.69,11.06-13.32,0-4.49-1.18-8.31-3.18-10.43-1.65-1.84-3.65-2.37-7.88-2.37H289Z"/><path d="M347.16,195.82v88H331v-88Z"/><path d="M359.39,237.78c1.65-13.2,10-20.32,23.43-20.32,7.29,0,13.29,2.51,16.94,7,2.83,3.3,3.65,7.92,3.65,19v25.86c.12,10.56.12,11.74.94,14.52H389.41c-.83-3.17-.83-3.7-.83-9.9-1.88,3.56-2.82,5-4.35,6.6a16.38,16.38,0,0,1-11.54,4.62c-9.53,0-15.3-6.73-15.3-17.82,0-9.37,4-16.62,11.07-19.79,5.06-2.24,11.06-3.56,18.83-4.09v-2.51c0-8.84-1.41-11.47-5.77-11.47s-6.24,2.77-6.83,9.89Zm27.9,14.91c-10,1.32-13.18,4.35-13.18,12.27,0,5.28,1.88,8.18,5.41,8.18,2.12,0,4-1.32,5.53-4.09s2.24-6.34,2.24-13.2Z"/><path d="M430.71,218.78v8.84c3-7.39,7-10.16,14.6-10.16,6.12,0,10.47,2.51,12.94,7.39,1.65,3.3,2.12,6.59,2.12,16.36v42.62H444.25V241.21c0-7.52-1.3-9.63-5.65-9.63-3.53,0-5.65,1.58-6.59,4.88-.47,1.71-.59,4-.59,9.23v38.14H415.29v-65Z"/><path d="M489.55,198.19v20.59h10.6V233h-10.6v23.88c0,8.71.12,9.76,1.42,11.35,1.06,1.32,2.82,1.84,5.65,1.84,1.41,0,1.76,0,4.35-.13v13.86a35.93,35.93,0,0,1-9.77,1.32c-7.06,0-12.12-2.51-14.83-7.26-2.12-3.83-2.59-6.86-2.59-19V233h-6.47V218.78h7.3l1.29-19.27Z"/><path d="M535.8,238.31c-1.88-6.34-4.35-8.84-8.47-8.84-3.06,0-5.06,2.24-5.06,5.67,0,4.22,1.65,5.67,9.65,8.84,7.41,2.9,9.06,3.83,11.77,6.33,3.53,3.3,5.41,8.05,5.41,13.59,0,12.67-8.94,21.25-22,21.25-6.82,0-12.71-2.25-16.47-6.21-3.06-3.16-4.36-6.59-5.3-13.06l12.83-2.37c1.29,6.59,4.24,9.63,9.3,9.63,4,0,6.35-2.24,6.35-6.07,0-4.22-1.65-5.81-9.3-8.45-12.24-4.48-17.41-10.55-17.41-20.45,0-12.27,8.47-20.71,20.59-20.71a18.76,18.76,0,0,1,13.89,5.67c2.94,3,4.35,5.68,5.77,11.22Z"/><path d="M114.26,305.8c11.3,0,15.77.92,20.12,4.35,5.89,4.49,9.18,12.93,9.18,23.22,0,10.69-3.29,19.13-8.94,23.36-4.59,3.43-9.41,4.61-19.54,4.61H109V393.8H91.78v-88ZM109,346.17h5.3c8,0,11.06-3.69,11.06-13.33,0-4.48-1.17-8.31-3.17-10.42-1.65-1.85-3.65-2.37-7.89-2.37H109Z"/><path d="M164.75,328.75v15.71c2.94-11.62,7.06-16.63,13.65-16.63a12.31,12.31,0,0,1,2.82.4v17.68c-1.06-.13-2.23-.27-2.7-.27-8.13,0-11.89,6.47-11.89,20.06v28.1H150.5V328.75Z"/><path d="M232.53,361.34c0,22.44-7.88,33.78-23.54,33.78s-23.65-11.34-23.65-33.64c0-23,7.77-34,23.89-34C224.65,327.44,232.53,338.91,232.53,361.34Zm-30.48-.13c0,16,1.77,21.25,6.94,21.25s6.83-5.28,6.83-21.12-1.76-21.24-6.71-21.24C203.82,340.1,202.05,345.38,202.05,361.21Z"/><path d="M258,328.75v62.94c0,11.08-.47,15.18-2.24,18.74-2.23,4.75-6.7,7.25-12.71,7.25a50.63,50.63,0,0,1-8.7-.92V401.85a7.06,7.06,0,0,0,2.11.27c2.59,0,3.89-.66,4.59-2.25s.71-1.45.83-8.71V328.75Zm-16.36-5.4v-18h16.48v18Z"/><path d="M283.61,364.25v3.43c0,10.42,2.23,14.78,7.76,14.78,4.95,0,7.42-3.17,8.24-11.09l14.48,1.06c-1.41,7.52-2.94,11.08-6.12,15.17-4.12,5.15-9.65,7.52-17,7.52-15.3,0-24.13-12-24.13-33,0-21.77,8.95-34.7,24.13-34.7a20.62,20.62,0,0,1,18.83,11.87c3.3,6.86,4.12,12.27,4.24,24.94Zm15.18-10.43c0-5-.35-7.65-1.18-9.76a6.82,6.82,0,0,0-6.35-4.62c-5.06,0-7.3,4.22-7.54,14.38Z"/><path d="M351.75,353.29c-.47-8.83-2.24-12.13-6.36-12.13-5.53,0-8.12,6.07-8.12,19.39,0,14,2.35,19.93,7.89,19.93,4.23,0,6.12-3.44,6.59-12l15.18,1.06c-1.77,17.28-9.18,25.59-22.83,25.59C329,395.12,321,383.38,321,361.21c0-21.77,8.47-33.77,24-33.77,6.71,0,11.77,2.11,15.53,6.59,4.12,4.88,5.65,9.5,6.36,18.61Z"/><path d="M394.11,308.17v20.58H404.7V343H394.11v23.89c0,8.7.12,9.76,1.41,11.34,1.06,1.32,2.83,1.85,5.65,1.85,1.42,0,1.77,0,4.36-.13V393.8a35.54,35.54,0,0,1-9.77,1.32c-7.06,0-12.12-2.5-14.83-7.25-2.12-3.83-2.59-6.87-2.59-19V343h-6.47V328.75h7.3l1.29-19.26Z"/></svg>