<svg xmlns="http://www.w3.org/2000/svg" viewBox="0 0 185.68 183.95"><defs><style>.a{fill:#666;}.b{fill:#ccd5c4;}</style></defs><ellipse class="a" cx="92.84" cy="91.98" rx="92.84" ry="91.98"/><path class="b" d="M33,80.11H29V78.57h9.84v1.54h-4v12.1H33Z" transform="translate(-10.26 -4.47)"/><path class="b" d="M40.46,77.67h1.72V83h.11a6.07,6.07,0,0,1,3.31-1c2,0,2.92.83,2.92,2.78v7.51H46.81V85.06c0-1.15-.38-1.64-2-1.64a6.74,6.74,0,0,0-2.66.67v8.12H40.46Z" transform="translate(-10.26 -4.47)"/><path class="b" d="M50.37,87.32V87c0-3.51,2.09-5.09,4.44-5.09,2.76,0,4.08,1.6,4.08,4.77v1H52.15c.12,2.4,1.3,3.25,3.31,3.25a6.09,6.09,0,0,0,3.13-.77v1.28a5.78,5.78,0,0,1-3.41,1C52,92.39,50.37,90.42,50.37,87.32Zm1.78-1.06h4.92c0-2.11-.82-2.94-2.34-2.94C53.59,83.32,52.32,84,52.15,86.26Z" transform="translate(-10.26 -4.47)"/><path class="b" d="M66.2,78.57h4.35c3,0,4.54,1.48,4.54,4.06,0,2.76-1.8,4.2-4.36,4.2H68v5.38H66.2Zm4.14,6.78c2,0,2.85-.84,2.85-2.58,0-1.91-.78-2.66-2.81-2.66H68v5.24Z" transform="translate(-10.26 -4.47)"/><path class="b" d="M76.9,77.67h1.75V92.21H76.9Z" transform="translate(-10.26 -4.47)"/><path class="b" d="M80.6,89.53c0-1.75,1.13-2.7,3-2.94l2.68-.33v-.93c0-1.55-.67-1.91-2.48-1.91a11.91,11.91,0,0,0-2.41.28V82.46a8.47,8.47,0,0,1,3.08-.54c2.24,0,3.52,1,3.52,3v7.31H86.65l-.19-.85h-.1a3.34,3.34,0,0,1-2.64,1C81.92,92.39,80.6,91.48,80.6,89.53Zm5.72.83V87.58l-2.23.22c-1.16.13-1.71.59-1.71,1.69s.71,1.56,1.77,1.56A3.37,3.37,0,0,0,86.32,90.36Z" transform="translate(-10.26 -4.47)"/><path class="b" d="M90.5,82.12h1.65V83h.1a6.15,6.15,0,0,1,3.39-1.07c2,0,2.92.83,2.92,2.78v7.51h-1.7V85.06c0-1.15-.39-1.64-2-1.64a6.7,6.7,0,0,0-2.66.67v8.12H90.5Z" transform="translate(-10.26 -4.47)"/><path class="b" d="M101.57,89.83V83.56h-1.44V82.12h1.44v-2.4h1.72v2.4h2.54v1.44h-2.54v6c0,1,.33,1.32,1.47,1.32a5.52,5.52,0,0,0,1.27-.16v1.17a3.56,3.56,0,0,1-1.74.39C102.68,92.31,101.57,91.62,101.57,89.83Z" transform="translate(-10.26 -4.47)"/><path class="b" d="M107.13,91.66V90.3a6.82,6.82,0,0,0,3,.63c1.52,0,2.17-.53,2.17-1.4s-.43-1.24-1.67-1.56l-1-.27c-1.46-.38-2.52-1-2.52-2.8s1.12-3,3.53-3a6.06,6.06,0,0,1,2.77.58v1.41a6.93,6.93,0,0,0-2.71-.53c-1.29,0-1.94.44-1.94,1.34s.42,1.15,1.46,1.44l1,.24c2,.53,2.76,1.18,2.76,3,0,2-1.4,3-3.59,3A6.52,6.52,0,0,1,107.13,91.66Z" transform="translate(-10.26 -4.47)"/><path class="b" d="M121.28,78.57h4.35c3,0,4.54,1.48,4.54,4.06,0,2.76-1.8,4.2-4.36,4.2h-2.74v5.38h-1.79Zm4.14,6.78c2,0,2.85-.84,2.85-2.58,0-1.91-.78-2.66-2.81-2.66h-2.39v5.24Z" transform="translate(-10.26 -4.47)"/><path class="b" d="M131.94,82.12h1.64v1.12h.11A3.73,3.73,0,0,1,136.43,82a2.36,2.36,0,0,1,.63.08v1.54a6.56,6.56,0,0,0-.78-.06,4.85,4.85,0,0,0-2.61.77v7.88h-1.73Z" transform="translate(-10.26 -4.47)"/><path class="b" d="M138,87.38V87c0-3.17,1.85-5.11,4.61-5.11s4.61,1.88,4.61,5v.33c0,3.16-1.87,5.09-4.63,5.09S138,90.52,138,87.38Zm7.41.1v-.55c0-2.72-1.28-3.59-2.84-3.59-1.77,0-2.78,1.26-2.78,3.51v.57c0,2.72,1.28,3.55,2.84,3.55C144.39,91,145.4,89.73,145.4,87.48Z" transform="translate(-10.26 -4.47)"/><path class="b" d="M146.56,94.87V93.69a6.74,6.74,0,0,0,1.07.12,1.35,1.35,0,0,0,1.51-1.52V82.12h1.74V92.39a2.54,2.54,0,0,1-2.8,2.82A2.83,2.83,0,0,1,146.56,94.87Zm2.58-16.55h1.76v1.81h-1.76Z" transform="translate(-10.26 -4.47)"/><path class="b" d="M152.85,87.32V87c0-3.51,2.09-5.09,4.45-5.09,2.76,0,4.08,1.6,4.08,4.77v1h-6.74c.12,2.4,1.3,3.25,3.31,3.25a6,6,0,0,0,3.12-.77v1.28a5.75,5.75,0,0,1-3.41,1C154.48,92.39,152.85,90.42,152.85,87.32Zm1.79-1.06h4.91c0-2.11-.81-2.94-2.33-2.94C156.08,83.32,154.8,84,154.64,86.26Z" transform="translate(-10.26 -4.47)"/><path class="b" d="M162.66,87.4v-.35c0-3.55,2.13-5.13,4.79-5.13a4.86,4.86,0,0,1,2.74.67V84a6,6,0,0,0-2.86-.63c-1.79,0-2.89,1.2-2.89,3.41v.53c0,2.51,1.06,3.59,3.09,3.59a6.22,6.22,0,0,0,2.8-.71V91.6a5.26,5.26,0,0,1-3,.79C164.48,92.39,162.66,90.77,162.66,87.4Z" transform="translate(-10.26 -4.47)"/><path class="b" d="M172.77,89.83V83.56h-1.44V82.12h1.44v-2.4h1.72v2.4H177v1.44h-2.54v6c0,1,.33,1.32,1.46,1.32a5.54,5.54,0,0,0,1.28-.16v1.17a3.56,3.56,0,0,1-1.74.39C173.88,92.31,172.77,91.62,172.77,89.83Z" transform="translate(-10.26 -4.47)"/><path class="b" d="M93.85,102c1.21,1.29,1.41,2.94,1.58,4.57.19,1.81.22,3.64.32,5.46,0,.21.06.41.09.61l.17,0a2.06,2.06,0,0,0,.26-.54,17.16,17.16,0,0,0,.15-1.76,22.47,22.47,0,0,0-.87-6.87.65.65,0,0,1,.12-.54.53.53,0,0,1,.49-.08c1,.42,1.91.86,2.85,1.33.47.23.57.72.66,1.2a16.67,16.67,0,0,1-.19,6.6,6.7,6.7,0,0,0-.11.9c0,.05,0,.1.06.26.13-.15.26-.22.29-.33a11.89,11.89,0,0,0,.52-6.73.73.73,0,0,1,.17-.58c.06-.07.39,0,.51.1.77.71,1.53,1.42,2.25,2.19a1.56,1.56,0,0,1,.31.88,12.9,12.9,0,0,1-2,8.4,5.44,5.44,0,0,0-.27.54l.12.12a2.07,2.07,0,0,0,.44-.32,12.8,12.8,0,0,0,2.16-4.71c.18-.66.24-1.36.4-2a2.79,2.79,0,0,1,.39-.66c.19.14.46.24.56.43a7.43,7.43,0,0,1,1,4.88,9.74,9.74,0,0,1-1.14,3.34,3.81,3.81,0,0,1-3.59,1.75,2.25,2.25,0,0,0-.56.09,1.88,1.88,0,0,0,.19.55,13.94,13.94,0,0,1,2.48,6.63,1.8,1.8,0,0,0,.23.46,3.12,3.12,0,0,0,.4-.32c.77-.9,1.5-1.83,2.29-2.7.5-.55,1.11-1,1.61-1.55a1.34,1.34,0,0,0,.27-.86,11.83,11.83,0,0,1,2.07-7,8.75,8.75,0,0,1,5-3.35,19.32,19.32,0,0,1,7.5-.3h.1c1.71.15,1.46.6,1.25,2a26.94,26.94,0,0,1-.65,2.65,10.69,10.69,0,0,1-3.35,6,7.77,7.77,0,0,1-4.33,1.68,21,21,0,0,1-5.71-.23,2.28,2.28,0,0,0-2.34.73,21.91,21.91,0,0,0-3.92,4.82c-.28.53-.19.69.42.69h6.4c.84,0,1.19.44.94,1.23-.17.52-.41,1-.6,1.55a2.4,2.4,0,0,0-.13.59c-.28,2.44-.53,4.88-.83,7.32a7.64,7.64,0,0,1-.52,2.29,2.05,2.05,0,0,1-2,1.24c-2.88,0-5.75,0-8.63,0a2.45,2.45,0,0,1-2.52-2.2c-.13-1-.22-2-.33-3-.21-1.9-.38-3.8-.66-5.69a15.39,15.39,0,0,0-.71-2.11.86.86,0,0,1,.9-1.23c2.17,0,4.34,0,6.5,0,.43,0,.65-.11.67-.6a14.07,14.07,0,0,0-2.1-7.82c-.08-.12-.26-.17-.39-.25a1.17,1.17,0,0,0-.14.35A3.78,3.78,0,0,1,98,125.58a8.22,8.22,0,0,1-6.74.39,6.29,6.29,0,0,1-1.2-.64.51.51,0,0,1-.2-.41.49.49,0,0,1,.33-.31c.66-.16,1.32-.28,2-.42a13.06,13.06,0,0,0,5-2.17,2.74,2.74,0,0,0,.38-.44l-.12-.14a3,3,0,0,0-.44.22,13.69,13.69,0,0,1-7.28,2.17,3.74,3.74,0,0,1-3.25-1.48c-.33-.41-.7-.78-1-1.19-.1-.12-.18-.42-.12-.47a.7.7,0,0,1,.55-.22,8.51,8.51,0,0,0,3.58.21c1-.14,2-.43,3-.67.08,0,.15-.12.22-.18l0-.16a8.64,8.64,0,0,0-1.14.12,17.83,17.83,0,0,1-6.35.13,1.6,1.6,0,0,1-1.35-1c-.38-.85-.78-1.68-1.15-2.54a.49.49,0,0,1,.06-.45.74.74,0,0,1,.54-.14c.6.11,1.18.27,1.78.4a21.14,21.14,0,0,0,6.35.39,6.47,6.47,0,0,0,1-.23v-.23c-.21,0-.42-.08-.63-.09-2-.13-4-.22-6-.41a19.38,19.38,0,0,1-2.57-.57,2.12,2.12,0,0,1-1.52-1.73v-.91c.25-.84.48-1.68.75-2.51a.84.84,0,0,1,.39-.46c.27-.13.3-.26.19-.51a.83.83,0,0,1-.1-.56,9.14,9.14,0,0,1,4.37-4.81c.44-.22.9-.61,1.47-.22,0,0,.21-.09.31-.16a4.27,4.27,0,0,1,.6-.45c.58-.25,1.18-.46,1.78-.69Zm1.08,8.77h0c0-.5,0-1-.07-1.52a22.14,22.14,0,0,0-.81-5.36.91.91,0,0,0-.94-.76c-.64,0-1.29,0-1.92.09-.14,0-.35.12-.37.2a.78.78,0,0,0,.17.43c.11.17.25.31.37.48a12.54,12.54,0,0,1,1.92,6,1.14,1.14,0,0,1-.66,1c-.47.09-.71-.23-.9-.59a4.55,4.55,0,0,1-.21-.51c-.59-1.42-1.12-2.86-1.77-4.25a8.62,8.62,0,0,0-1.25-1.71.64.64,0,0,0-.61-.1,8.43,8.43,0,0,0-3.8,3.6c-.39.72-.37.77.28,1.28A15.86,15.86,0,0,0,89,111.47c.52.18,1.06.33,1.57.56a.77.77,0,0,1,.53.88,1,1,0,0,1-1,.65c-1-.17-2-.3-3-.55a7.74,7.74,0,0,1-3.48-1.79c-.27-.26-.51-.19-.54.19-.06.63-.05,1.25-.11,1.88a.85.85,0,0,0,.67,1c.6.18,1.2.35,1.81.47a37.81,37.81,0,0,0,7.13.46.88.88,0,0,1,1,.7,1.15,1.15,0,0,1-.4.93,3.41,3.41,0,0,1-1.5.52,25,25,0,0,1-7.37-.48c-.11,0-.31,0-.35.05a.4.4,0,0,0,0,.37,7.89,7.89,0,0,0,.65,1.26,1.26,1.26,0,0,0,.76.52,29.11,29.11,0,0,0,3.84.24,19.89,19.89,0,0,0,5.64-1.17,1.32,1.32,0,0,1,.69-.11,1.24,1.24,0,0,1,.69.48.91.91,0,0,1-.19.71,1.46,1.46,0,0,1-.61.44c-.69.31-1.37.64-2.09.9a13.36,13.36,0,0,1-5.8.92c-.32,0-.48.2-.29.38.47.43.81,1,1.57,1.11a12.26,12.26,0,0,0,7.85-2,3.05,3.05,0,0,1,1-.42,1,1,0,0,1,1,.43c.25.35.07.65-.14.92a3.91,3.91,0,0,1-.56.59A14.26,14.26,0,0,1,92.5,125a2,2,0,0,0-.48.26,1.84,1.84,0,0,0,.51.31,7.05,7.05,0,0,0,3.81-.17,4.5,4.5,0,0,0,2.46-1.42,3.5,3.5,0,0,0,.25-3.79c-.14-.32-.54-.66-.18-1s.72,0,1.06.16a3.52,3.52,0,0,0,3.79-.27,4.29,4.29,0,0,0,1.27-2,7.39,7.39,0,0,0,.26-4.34c0-.15-.2-.27-.3-.4a1.56,1.56,0,0,0-.26.39c-.24.76-.42,1.54-.69,2.28a10.6,10.6,0,0,1-2.13,3.6c-.33.34-.68.58-1.16.3a1,1,0,0,1-.36-1.26c.22-.47.53-.9.79-1.35a13.18,13.18,0,0,0,1.64-6.31,2.9,2.9,0,0,0-1-2.38c-.09-.09-.26-.1-.4-.14a1.49,1.49,0,0,0-.11.4c0,.4.06.81,0,1.21a15,15,0,0,1-1,4.55A22.87,22.87,0,0,1,99,116.17a.76.76,0,0,1-.66.32,1.07,1.07,0,0,1-.54-.6,1.18,1.18,0,0,1,0-.69c.24-.9.54-1.78.75-2.69a17.18,17.18,0,0,0,.37-6.39,1.76,1.76,0,0,0-1.11-1.56c-.26-.11-.5-.28-.76-.39a.55.55,0,0,0-.42,0c-.07,0-.09.24-.06.36a23.61,23.61,0,0,1,.46,7.26,4.35,4.35,0,0,1-.6,1.68.75.75,0,0,1-1.18.12,2,2,0,0,1-.37-1C94.89,112,94.93,111.42,94.93,110.81Zm8.42,22.53H97.06c-.64,0-.73.07-.66.7q.45,4.19.95,8.36c.1.83.46,1.11,1.29,1.11H108a1.06,1.06,0,0,0,1.23-1.05c.35-2.86.67-5.71,1-8.57,0-.43-.14-.57-.55-.57Zm11.07-9.52a24,24,0,0,0,3.27-.57A7.19,7.19,0,0,0,122.1,119a16.85,16.85,0,0,0,1.17-4.86c0-.13,0-.36-.11-.39a.62.62,0,0,0-.46.07c-1.6,1.07-3.23,2.11-4.78,3.25-2.58,1.9-5.13,3.86-7.68,5.81-.12.09-.15.27-.23.42a1.7,1.7,0,0,0,.39.18Zm5.11-11.11v-.07c-1.06.14-2.12.22-3.17.43a8.92,8.92,0,0,0-3.64,1.58,8,8,0,0,0-2.93,4.22,25.37,25.37,0,0,0-.6,3,.5.5,0,0,0,.16.42c.1.05.31,0,.44-.13s.38-.33.58-.49c1.78-1.37,3.54-2.78,5.36-4.09,2-1.44,4-2.78,6-4.17a1.87,1.87,0,0,0,.3-.42,1.58,1.58,0,0,0-.47-.2C120.91,112.77,120.22,112.75,119.53,112.71Zm-16.26,18.58H96.11c-.4,0-.53.14-.43.57s.48.66,1,.66H110a1.85,1.85,0,0,0,.41,0c.28-.06.71-.67.57-.9a.86.86,0,0,0-.65-.28C107.94,131.29,105.61,131.29,103.27,131.29ZM89.55,103.87,92,108.56C92.43,107.5,90.59,104.08,89.55,103.87Zm-1.14,8.47-4.82-2.56C83.71,110.86,87.28,112.54,88.41,112.34Z" transform="translate(-10.26 -4.47)"/></svg>