<svg xmlns="http://www.w3.org/2000/svg" viewBox="0 0 560.05 560.05"><defs><style>.a{fill:#af9d89;}.b{fill:#727a6b;}</style></defs><circle class="a" cx="280.02" cy="280.02" r="280.02"/><path class="b" d="M108.19,222.87H96.65v-4.41h28.13v4.41H113.24v34.57h-5Z" transform="translate(-25.98 -25.98)"/><path class="b" d="M129.48,215.91h4.93V231h.29a17.34,17.34,0,0,1,9.45-3c5.68,0,8.35,2.38,8.35,7.95v21.46h-4.87V237c0-3.31-1.1-4.7-5.63-4.7a19.2,19.2,0,0,0-7.59,1.92v23.2h-4.93Z" transform="translate(-25.98 -25.98)"/><path class="b" d="M157.78,243.46v-.87c0-10,6-14.56,12.7-14.56,7.89,0,11.66,4.58,11.66,13.63v2.78H162.88c.35,6.85,3.72,9.28,9.46,9.28a17.4,17.4,0,0,0,8.93-2.2v3.65a16.29,16.29,0,0,1-9.74,2.79C162.42,258,157.78,252.33,157.78,243.46Zm5.1-3h14c0-6-2.32-8.41-6.67-8.41C167,232,163.35,233.83,162.88,240.44Z" transform="translate(-25.98 -25.98)"/><path class="b" d="M203,218.46h12.41c8.64,0,13,4.23,13,11.6,0,7.89-5.16,12-12.47,12h-7.83v15.37H203Zm11.83,19.37c5.8,0,8.12-2.38,8.12-7.36,0-5.46-2.2-7.6-8-7.6h-6.85v15Z" transform="translate(-25.98 -25.98)"/><path class="b" d="M233.58,215.91h5v41.53h-5Z" transform="translate(-25.98 -25.98)"/><path class="b" d="M244.14,249.78c0-5,3.25-7.71,8.7-8.41l7.65-.93v-2.67c0-4.4-1.91-5.45-7.07-5.45a34.17,34.17,0,0,0-6.9.81V229.6a23.81,23.81,0,0,1,8.81-1.57c6.38,0,10,2.73,10,8.53v20.88h-3.95L260.9,255h-.29c-1.45,1.62-3.71,3-7.54,3C247.91,258,244.14,255.35,244.14,249.78Zm16.35,2.38v-7.95l-6.38.64c-3.3.35-4.87,1.68-4.87,4.81s2,4.47,5,4.47A9.64,9.64,0,0,0,260.49,252.16Z" transform="translate(-25.98 -25.98)"/><path class="b" d="M272.44,228.61h4.7v2.49h.29a17.65,17.65,0,0,1,9.69-3.07c5.68,0,8.35,2.38,8.35,7.95v21.46H290.6V237c0-3.31-1.11-4.7-5.63-4.7a19.29,19.29,0,0,0-7.6,1.92v23.2h-4.93Z" transform="translate(-25.98 -25.98)"/><path class="b" d="M304.05,250.65V232.73h-4.11v-4.12h4.11v-6.84H309v6.84h7.25v4.12H309V250c0,2.73.93,3.77,4.18,3.77a15.73,15.73,0,0,0,3.65-.46v3.36a10.43,10.43,0,0,1-5,1.11C307.24,257.73,304.05,255.75,304.05,250.65Z" transform="translate(-25.98 -25.98)"/><path class="b" d="M319.94,255.87V252a19.71,19.71,0,0,0,8.59,1.8c4.35,0,6.2-1.51,6.2-4,0-2.32-1.21-3.54-4.75-4.47l-2.73-.75c-4.17-1.1-7.19-3-7.19-8s3.19-8.53,10.09-8.53a17,17,0,0,1,7.89,1.68v4a20.15,20.15,0,0,0-7.71-1.5c-3.72,0-5.57,1.27-5.57,3.82,0,2.38,1.22,3.31,4.17,4.12l2.73.7c5.63,1.51,7.89,3.36,7.89,8.47,0,5.68-4,8.58-10.27,8.58A18.76,18.76,0,0,1,319.94,255.87Z" transform="translate(-25.98 -25.98)"/><path class="b" d="M360.37,218.46h12.41c8.64,0,13,4.23,13,11.6,0,7.89-5.16,12-12.47,12h-7.83v15.37h-5.1Zm11.83,19.37c5.8,0,8.12-2.38,8.12-7.36,0-5.46-2.2-7.6-8-7.6h-6.85v15Z" transform="translate(-25.98 -25.98)"/><path class="b" d="M390.82,228.61h4.7v3.19h.29a10.71,10.71,0,0,1,7.83-3.54,6.64,6.64,0,0,1,1.79.23v4.41a19.19,19.19,0,0,0-2.2-.17,14,14,0,0,0-7.48,2.2v22.51h-4.93Z" transform="translate(-25.98 -25.98)"/><path class="b" d="M408.1,243.63v-1c0-9.05,5.28-14.62,13.17-14.62,8.23,0,13.16,5.39,13.16,14.44v.93c0,9-5.33,14.56-13.22,14.56C412.92,258,408.1,252.62,408.1,243.63Zm21.17.29v-1.56c0-7.78-3.65-10.27-8.12-10.27-5,0-7.94,3.6-7.94,10v1.63c0,7.77,3.65,10.15,8.12,10.15C426.37,253.9,429.27,250.36,429.27,243.92Z" transform="translate(-25.98 -25.98)"/><path class="b" d="M432.58,265v-3.36a19.65,19.65,0,0,0,3.07.35c2.67,0,4.29-1.34,4.29-4.35V228.61h5V258c0,4.64-2.38,8.06-8,8.06A8,8,0,0,1,432.58,265Zm7.36-47.27H445v5.17h-5.05Z" transform="translate(-25.98 -25.98)"/><path class="b" d="M450.56,243.46v-.87c0-10,6-14.56,12.7-14.56,7.89,0,11.66,4.58,11.66,13.63v2.78H455.66c.35,6.85,3.71,9.28,9.46,9.28a17.43,17.43,0,0,0,8.93-2.2v3.65A16.3,16.3,0,0,1,464.3,258C455.2,258,450.56,252.33,450.56,243.46Zm5.1-3h14c0-6-2.32-8.41-6.67-8.41C459.78,232,456.13,233.83,455.66,240.44Z" transform="translate(-25.98 -25.98)"/><path class="b" d="M478.57,243.69v-1c0-10.15,6.09-14.67,13.69-14.67a14,14,0,0,1,7.83,1.91v4.12a17.44,17.44,0,0,0-8.18-1.8c-5.1,0-8.24,3.43-8.24,9.75v1.51c0,7.19,3,10.26,8.82,10.26a17.51,17.51,0,0,0,8-2v3.95A15.2,15.2,0,0,1,492,258C483.79,258,478.57,253.32,478.57,243.69Z" transform="translate(-25.98 -25.98)"/><path class="b" d="M507.45,250.65V232.73h-4.11v-4.12h4.11v-6.84h4.93v6.84h7.25v4.12h-7.25V250c0,2.73.93,3.77,4.18,3.77a15.73,15.73,0,0,0,3.65-.46v3.36a10.37,10.37,0,0,1-5,1.11C510.64,257.73,507.45,255.75,507.45,250.65Z" transform="translate(-25.98 -25.98)"/></svg>