<svg xmlns="http://www.w3.org/2000/svg" viewBox="0 0 185.68 183.95"><defs><style>.a{fill:#666;}.b{fill:#ccc;}</style></defs><ellipse class="a" cx="92.84" cy="91.98" rx="92.84" ry="91.98"/><path class="b" d="M30.29,80.11h-4V78.57H36.1v1.54h-4v12.1H30.29Z" transform="translate(-7.54 -4.47)"/><path class="b" d="M37.74,77.67h1.73V83h.1a6.07,6.07,0,0,1,3.31-1c2,0,2.92.83,2.92,2.78v7.51H44.1V85.06c0-1.15-.39-1.64-2-1.64a6.65,6.65,0,0,0-2.66.67v8.12H37.74Z" transform="translate(-7.54 -4.47)"/><path class="b" d="M47.65,87.32V87c0-3.51,2.09-5.09,4.45-5.09,2.76,0,4.08,1.6,4.08,4.77v1H49.44c.12,2.4,1.3,3.25,3.31,3.25a6,6,0,0,0,3.12-.77v1.28a5.75,5.75,0,0,1-3.41,1C49.27,92.39,47.65,90.42,47.65,87.32Zm1.79-1.06h4.91c0-2.11-.81-2.94-2.34-2.94C50.88,83.32,49.6,84,49.44,86.26Z" transform="translate(-7.54 -4.47)"/><path class="b" d="M63.49,78.57h4.34c3,0,4.55,1.48,4.55,4.06,0,2.76-1.81,4.2-4.37,4.2H65.27v5.38H63.49Zm4.14,6.78c2,0,2.84-.84,2.84-2.58,0-1.91-.77-2.66-2.8-2.66h-2.4v5.24Z" transform="translate(-7.54 -4.47)"/><path class="b" d="M74.18,77.67h1.75V92.21H74.18Z" transform="translate(-7.54 -4.47)"/><path class="b" d="M77.88,89.53c0-1.75,1.14-2.7,3-2.94l2.68-.33v-.93c0-1.55-.67-1.91-2.47-1.91a11.93,11.93,0,0,0-2.42.28V82.46a8.53,8.53,0,0,1,3.09-.54c2.23,0,3.51,1,3.51,3v7.31H83.93l-.18-.85h-.11a3.3,3.3,0,0,1-2.63,1C79.2,92.39,77.88,91.48,77.88,89.53Zm5.72.83V87.58l-2.23.22c-1.16.13-1.7.59-1.7,1.69s.71,1.56,1.76,1.56A3.33,3.33,0,0,0,83.6,90.36Z" transform="translate(-7.54 -4.47)"/><path class="b" d="M87.79,82.12h1.64V83h.1a6.17,6.17,0,0,1,3.39-1.07c2,0,2.93.83,2.93,2.78v7.51H94.14V85.06c0-1.15-.38-1.64-2-1.64a6.7,6.7,0,0,0-2.66.67v8.12H87.79Z" transform="translate(-7.54 -4.47)"/><path class="b" d="M98.85,89.83V83.56H97.41V82.12h1.44v-2.4h1.73v2.4h2.54v1.44h-2.54v6c0,1,.32,1.32,1.46,1.32a5.61,5.61,0,0,0,1.28-.16v1.17a3.61,3.61,0,0,1-1.75.39C100,92.31,98.85,91.62,98.85,89.83Z" transform="translate(-7.54 -4.47)"/><path class="b" d="M104.41,91.66V90.3a6.89,6.89,0,0,0,3,.63c1.52,0,2.17-.53,2.17-1.4s-.42-1.24-1.66-1.56l-1-.27c-1.46-.38-2.52-1-2.52-2.8s1.12-3,3.54-3a6,6,0,0,1,2.76.58v1.41a6.87,6.87,0,0,0-2.7-.53c-1.3,0-2,.44-2,1.34s.43,1.15,1.46,1.44l1,.24c2,.53,2.76,1.18,2.76,3,0,2-1.4,3-3.6,3A6.55,6.55,0,0,1,104.41,91.66Z" transform="translate(-7.54 -4.47)"/><path class="b" d="M118.57,78.57h4.34c3,0,4.55,1.48,4.55,4.06,0,2.76-1.81,4.2-4.37,4.2h-2.74v5.38h-1.78Zm4.14,6.78c2,0,2.84-.84,2.84-2.58,0-1.91-.77-2.66-2.8-2.66h-2.4v5.24Z" transform="translate(-7.54 -4.47)"/><path class="b" d="M129.22,82.12h1.65v1.12h.1A3.75,3.75,0,0,1,133.71,82a2.3,2.3,0,0,1,.63.08v1.54a6.42,6.42,0,0,0-.77-.06,4.86,4.86,0,0,0-2.62.77v7.88h-1.73Z" transform="translate(-7.54 -4.47)"/><path class="b" d="M135.27,87.38V87c0-3.17,1.85-5.11,4.61-5.11s4.61,1.88,4.61,5v.33c0,3.16-1.87,5.09-4.63,5.09S135.27,90.52,135.27,87.38Zm7.41.1v-.55c0-2.72-1.28-3.59-2.84-3.59-1.76,0-2.78,1.26-2.78,3.51v.57c0,2.72,1.28,3.55,2.84,3.55C141.67,91,142.68,89.73,142.68,87.48Z" transform="translate(-7.54 -4.47)"/><path class="b" d="M143.84,94.87V93.69a6.86,6.86,0,0,0,1.08.12,1.34,1.34,0,0,0,1.5-1.52V82.12h1.75V92.39a2.55,2.55,0,0,1-2.81,2.82A2.85,2.85,0,0,1,143.84,94.87Zm2.58-16.55h1.77v1.81h-1.77Z" transform="translate(-7.54 -4.47)"/><path class="b" d="M150.13,87.32V87c0-3.51,2.1-5.09,4.45-5.09,2.76,0,4.08,1.6,4.08,4.77v1h-6.74c.12,2.4,1.3,3.25,3.31,3.25a6.09,6.09,0,0,0,3.13-.77v1.28a5.78,5.78,0,0,1-3.41,1C151.76,92.39,150.13,90.42,150.13,87.32Zm1.79-1.06h4.91c0-2.11-.81-2.94-2.33-2.94C153.36,83.32,152.08,84,151.92,86.26Z" transform="translate(-7.54 -4.47)"/><path class="b" d="M159.94,87.4v-.35c0-3.55,2.13-5.13,4.79-5.13a4.86,4.86,0,0,1,2.74.67V84a6,6,0,0,0-2.86-.63c-1.79,0-2.88,1.2-2.88,3.41v.53c0,2.51,1.05,3.59,3.08,3.59a6.18,6.18,0,0,0,2.8-.71V91.6a5.26,5.26,0,0,1-3,.79C161.77,92.39,159.94,90.77,159.94,87.4Z" transform="translate(-7.54 -4.47)"/><path class="b" d="M170.05,89.83V83.56h-1.44V82.12h1.44v-2.4h1.73v2.4h2.53v1.44h-2.53v6c0,1,.32,1.32,1.46,1.32a5.68,5.68,0,0,0,1.28-.16v1.17a3.64,3.64,0,0,1-1.75.39C171.17,92.31,170.05,91.62,170.05,89.83Z" transform="translate(-7.54 -4.47)"/></svg>