<?xml version="1.0" encoding="utf-8"?>
<!-- Generator: Adobe Illustrator 26.0.1, SVG Export Plug-In . SVG Version: 6.00 Build 0)  -->
<svg version="1.1" id="Layer_1" xmlns="http://www.w3.org/2000/svg" xmlns:xlink="http://www.w3.org/1999/xlink" x="0px" y="0px"
	 viewBox="0 0 200 200" style="enable-background:new 0 0 200 200;" xml:space="preserve">
<style type="text/css">
	.st0{fill:#485933;}
	.st1{fill:#FFFFFF;}
</style>
<g>
	
		<image style="overflow:visible;opacity:0.71;" width="217" height="215" xlink:href="14ADFA4CF6E8C920.png"  transform="matrix(1 0 0 1 -6 -4)">
	</image>
	<g>
		<ellipse class="st0" cx="99.7" cy="100" rx="92.8" ry="92"/>
	</g>
</g>
<path class="st1" d="M73.9,40.5c3.4,3.6,3.9,8.2,4.4,12.8c0.5,5.1,0.6,10.2,0.9,15.3c0,0.6,0.2,1.1,0.2,1.7c0.2,0,0.3,0.1,0.5,0.1
	c0.2-0.5,0.6-1,0.7-1.5c0.2-1.6,0.4-3.3,0.4-4.9c0.1-6.5-0.5-12.9-2.4-19.2c-0.1-0.4,0-1.2,0.3-1.5c0.3-0.3,1-0.4,1.4-0.2
	c2.7,1.2,5.3,2.4,7.9,3.7c1.3,0.7,1.6,2,1.8,3.4c1.1,6.2,0.9,12.3-0.5,18.4c-0.2,0.8-0.2,1.7-0.3,2.5c0,0.1,0.1,0.3,0.2,0.7
	c0.4-0.4,0.7-0.6,0.8-0.9c2-6.1,3-12.4,1.4-18.8c-0.1-0.5,0.1-1.2,0.5-1.6c0.2-0.2,1.1,0,1.4,0.3c2.2,2,4.3,4,6.3,6.1
	c0.6,0.6,0.8,1.6,0.9,2.5c0.7,8.5-1,16.3-5.7,23.5c-0.3,0.5-0.5,1-0.8,1.5c0.1,0.1,0.2,0.2,0.4,0.3c0.4-0.3,0.9-0.5,1.2-0.9
	c3-3.9,4.8-8.4,6-13.1c0.5-1.9,0.7-3.8,1.1-5.7c0.2-0.7,0.7-1.2,1.1-1.8c0.5,0.4,1.3,0.7,1.6,1.2c2.2,4.3,3.6,8.7,2.7,13.6
	c-0.6,3.3-1.5,6.4-3.2,9.3c-2,3.3-6.2,5.4-10,4.9c-0.5-0.1-1,0.2-1.6,0.2c0.2,0.5,0.2,1.1,0.5,1.5c3.9,5.6,6.2,11.7,6.9,18.5
	c0,0.4,0.4,0.9,0.6,1.3c0.4-0.3,0.8-0.5,1.1-0.9c2.1-2.5,4.2-5.1,6.4-7.6c1.4-1.5,3.1-2.8,4.5-4.3c0.5-0.6,0.8-1.6,0.8-2.4
	c0-7.1,1.7-13.7,5.8-19.5c3.4-4.9,8.3-7.7,14-9.3c6.9-2,13.9-1.6,21-0.9c0.1,0,0.2,0,0.3,0c4.8,0.4,4.1,1.7,3.5,5.5
	c-0.4,2.5-1.2,4.9-1.8,7.4c-1.6,6.5-4.1,12.4-9.4,16.8c-3.5,2.9-7.6,4.3-12.1,4.7c-5.4,0.5-10.7,0.3-16-0.6c-2.8-0.5-4.6,0-6.6,2
	c-4,4.2-8.2,8.2-10.9,13.5c-0.8,1.5-0.5,1.9,1.2,1.9c6,0,11.9,0,17.9,0c2.3,0,3.3,1.2,2.6,3.4c-0.5,1.5-1.1,2.9-1.7,4.4
	c-0.2,0.5-0.3,1.1-0.4,1.6c-0.8,6.8-1.5,13.6-2.3,20.4c-0.3,2.2-0.5,4.5-1.4,6.4c-1,2.1-2.9,3.5-5.6,3.5c-8-0.1-16.1,0-24.1,0
	c-3.7,0-6.5-2.4-7-6.1c-0.4-2.8-0.6-5.5-0.9-8.3c-0.6-5.3-1.1-10.6-1.8-15.9c-0.3-2-1.3-3.9-2-5.9c-0.7-2,0.4-3.4,2.5-3.4
	c6.1,0,12.1,0,18.2,0c1.2,0,1.8-0.3,1.9-1.7c0.2-7.9-1.8-15.1-5.9-21.9c-0.2-0.3-0.7-0.5-1.1-0.7c-0.1,0.3-0.4,0.6-0.4,1
	c-0.2,4.4-2.3,7.6-6.3,9.6c-6.1,3-12.4,3.5-18.8,1.1c-1.2-0.4-2.3-1.1-3.3-1.8c-0.3-0.2-0.6-0.8-0.6-1.1c0.1-0.3,0.6-0.8,0.9-0.9
	c1.8-0.4,3.7-0.8,5.5-1.2c5-1.1,9.7-3,13.9-6c0.4-0.3,0.7-0.8,1.1-1.2c-0.1-0.1-0.2-0.3-0.3-0.4c-0.4,0.2-0.9,0.4-1.2,0.6
	c-6.2,4.1-13,5.8-20.3,6.1c-3.9,0.1-6.7-1.3-9.1-4.1c-0.9-1.1-2-2.2-2.9-3.3c-0.3-0.3-0.5-1.2-0.3-1.3c0.4-0.4,1.1-0.7,1.6-0.6
	c3.3,1,6.7,1,10,0.6c2.9-0.4,5.7-1.2,8.5-1.9c0.2-0.1,0.4-0.3,0.6-0.5c0-0.1-0.1-0.3-0.1-0.4c-1.1,0.1-2.1,0.1-3.2,0.3
	c-5.9,1.3-11.8,1.2-17.8,0.4c-1.8-0.3-3-1.1-3.8-2.8c-1.1-2.4-2.2-4.7-3.2-7.1c-0.2-0.4-0.1-1.1,0.2-1.3c0.4-0.3,1-0.5,1.5-0.4
	c1.7,0.3,3.3,0.8,5,1.1c5.9,1.3,11.8,1.5,17.8,1.1c1-0.1,1.9-0.4,2.9-0.7c0-0.2,0-0.4,0-0.6c-0.6-0.1-1.2-0.2-1.8-0.3
	c-5.6-0.4-11.1-0.6-16.7-1.1c-2.4-0.2-4.8-1-7.2-1.6c-2.5-0.6-3.6-2.5-4.2-4.8c0-0.9,0-1.7,0-2.6c0.7-2.3,1.3-4.7,2.1-7
	c0.2-0.5,0.6-1.1,1.1-1.3c0.7-0.4,0.8-0.7,0.5-1.4c-0.2-0.5-0.4-1.1-0.3-1.6C46,52.2,50,47.6,55.8,44.7c1.2-0.6,2.5-1.7,4.1-0.6
	c0.1,0.1,0.6-0.3,0.9-0.4c0.6-0.4,1.1-1,1.7-1.3c1.6-0.7,3.3-1.3,5-1.9C69.5,40.5,71.7,40.5,73.9,40.5z M76.9,65c0,0,0.1,0,0.1,0
	c-0.1-1.4-0.1-2.8-0.2-4.3c-0.2-5.1-0.8-10.1-2.2-15c-0.4-1.3-1.2-2.2-2.6-2.1c-1.8,0-3.6,0.1-5.4,0.3c-0.4,0-1,0.3-1,0.6
	c-0.1,0.4,0.2,0.8,0.5,1.2c0.3,0.5,0.7,0.9,1,1.3c3.6,5,4.6,10.8,5.4,16.7c0.1,1.1-1,2.8-1.8,2.9c-1.3,0.2-2-0.7-2.5-1.6
	c-0.2-0.5-0.4-1-0.6-1.4c-1.6-4-3.1-8-5-11.9c-0.8-1.8-2.2-3.3-3.5-4.8c-0.3-0.3-1.3-0.5-1.7-0.3c-4.6,2.3-8.2,5.6-10.6,10.1
	c-1.1,2-1.1,2.2,0.8,3.6c3.9,3,8.3,5,12.9,6.6c1.5,0.5,3,0.9,4.4,1.6c1,0.4,1.8,1.2,1.5,2.5c-0.2,1-1.8,2-2.9,1.8
	c-2.8-0.5-5.7-0.8-8.5-1.5c-3.6-0.9-7-2.4-9.7-5c-0.8-0.7-1.4-0.5-1.5,0.6c-0.2,1.7-0.1,3.5-0.3,5.2c-0.1,1.5,0.5,2.4,1.9,2.8
	c1.7,0.5,3.4,1,5.1,1.3c6.6,1.3,13.3,1.3,19.9,1.3c1.4,0,2.6,0.6,2.7,2c0.1,0.8-0.4,2.2-1.1,2.6c-1.2,0.8-2.8,1.4-4.2,1.5
	c-6.9,0.3-13.8,0.4-20.6-1.3c-0.3-0.1-0.9-0.1-1,0.1c-0.2,0.2-0.1,0.7,0,1.1c0.6,1.2,1.1,2.5,1.8,3.5c0.5,0.7,1.4,1.4,2.1,1.5
	c3.6,0.4,7.2,0.8,10.7,0.7c5.4-0.2,10.6-1.5,15.8-3.3c0.6-0.2,1.4-0.5,1.9-0.3c0.7,0.2,1.6,0.7,1.9,1.3c0.2,0.5-0.1,1.4-0.5,2
	c-0.4,0.5-1.1,0.9-1.7,1.2c-1.9,0.9-3.9,1.8-5.8,2.5c-5.2,1.9-10.6,3.1-16.2,2.6c-0.9-0.1-1.3,0.5-0.8,1.1c1.3,1.2,2.3,2.9,4.4,3.1
	c8,0.6,15.2-1.3,21.9-5.7c0.8-0.5,1.8-1,2.7-1.2c1.1-0.3,2.1,0.2,2.8,1.2c0.7,1,0.2,1.8-0.4,2.6c-0.5,0.6-1,1.2-1.6,1.6
	c-4.5,3.5-9.6,5.6-15.1,6.9c-0.5,0.1-0.9,0.5-1.3,0.7c0.5,0.3,0.9,0.7,1.4,0.9c3.6,0.8,7.2,0.6,10.6-0.5c2.6-0.8,5.2-1.7,6.9-4
	c2.6-3.3,2.3-6.9,0.7-10.6c-0.4-0.9-1.5-1.8-0.5-2.8c1-1,2,0.1,3,0.5c3.7,1.6,7.2,1.8,10.6-0.8c1.9-1.4,2.7-3.6,3.5-5.7
	c1.5-4,1.7-8,0.8-12.1c-0.1-0.4-0.6-0.7-0.9-1.1c-0.2,0.4-0.6,0.7-0.7,1.1c-0.7,2.1-1.2,4.3-1.9,6.4c-1.4,3.7-3.2,7.2-5.9,10.1
	c-0.9,0.9-1.9,1.6-3.2,0.9c-1-0.6-1.6-2.2-1-3.5c0.6-1.3,1.5-2.5,2.2-3.8c3-5.5,4.5-11.3,4.6-17.6c0-2.9-0.9-4.9-2.9-6.7
	c-0.3-0.2-0.7-0.3-1.1-0.4c-0.1,0.4-0.3,0.7-0.3,1.1c0,1.1,0.2,2.3,0.1,3.4c-0.3,4.4-1.1,8.6-2.7,12.7c-1,2.5-2.3,5-3.6,7.4
	c-0.3,0.5-1.3,1-1.8,0.9c-0.6-0.2-1.2-1-1.5-1.7c-0.2-0.5,0-1.3,0.1-1.9c0.7-2.5,1.5-5,2.1-7.5c1.4-5.9,1.9-11.8,1-17.9
	c-0.3-2.1-1.2-3.5-3.1-4.3c-0.7-0.3-1.4-0.8-2.1-1.1c-0.3-0.1-0.9-0.1-1.2,0c-0.2,0.1-0.2,0.7-0.2,1c1.6,6.7,1.8,13.5,1.3,20.3
	c-0.1,1.6-0.9,3.3-1.7,4.7c-0.6,1.2-2.6,1.3-3.3,0.3c-0.6-0.7-0.9-1.8-1-2.7C76.8,68.4,76.9,66.7,76.9,65z M100.4,127.9
	C100.4,127.9,100.4,127.9,100.4,127.9c-5.9,0-11.7,0-17.6,0c-1.8,0-2,0.2-1.8,1.9c0.9,7.8,1.7,15.6,2.7,23.4
	c0.3,2.3,1.3,3.1,3.6,3.1c8.7,0,17.4,0,26.1,0c2.1,0,3.2-0.8,3.4-2.9c1-8,1.8-16,2.8-23.9c0.1-1.2-0.4-1.6-1.5-1.6
	C112.2,127.9,106.3,127.9,100.4,127.9z M131.4,101.3c2.4-0.4,5.9-0.6,9.1-1.6c6.1-1.8,9.8-6.4,12.3-11.9c2-4.3,2.7-8.9,3.3-13.6
	c0-0.4-0.1-1-0.3-1.1c-0.4-0.1-1,0-1.3,0.2c-4.5,3-9,5.9-13.3,9.1c-7.2,5.3-14.3,10.8-21.5,16.2c-0.3,0.2-0.4,0.8-0.6,1.2
	c0.4,0.2,0.7,0.5,1.1,0.5C123.5,100.6,126.9,100.9,131.4,101.3z M145.6,70.3c0-0.1,0-0.1,0-0.2c-2.9,0.4-5.9,0.6-8.8,1.2
	c-3.7,0.7-7.1,2.2-10.2,4.4c-4.1,3-6.7,7-8.2,11.8c-0.8,2.7-1.2,5.6-1.7,8.5c-0.1,0.4,0.2,1,0.4,1.2c0.3,0.1,0.9-0.1,1.2-0.4
	c0.6-0.4,1.1-0.9,1.6-1.4c5-3.8,9.9-7.8,15-11.4c5.5-4,11.3-7.8,16.9-11.7c0.4-0.3,0.6-0.8,0.8-1.2c-0.4-0.2-0.9-0.5-1.3-0.6
	C149.5,70.4,147.6,70.4,145.6,70.3z M100.2,122.2C100.2,122.2,100.2,122.2,100.2,122.2c-4.4,0-8.7,0-13.1,0c-2.3,0-4.6,0-7,0
	c-1.1,0-1.5,0.4-1.2,1.6c0.4,1.6,1.3,1.8,2.7,1.8c12.4,0,24.8,0,37.2,0c0.4,0,0.8,0,1.1-0.1c0.8-0.2,2-1.9,1.6-2.5
	c-0.3-0.5-1.2-0.8-1.8-0.8C113.3,122.2,106.7,122.2,100.2,122.2z M61.9,45.6c2.3,4.3,4.6,8.7,6.9,13.1
	C69.9,55.7,64.8,46.1,61.9,45.6z M58.7,69.2c-4.6-2.4-9.1-4.8-13.5-7.1C45.6,65.1,55.5,69.8,58.7,69.2z"/>
</svg>
