<svg xmlns="http://www.w3.org/2000/svg" viewBox="0 0 185.68 183.95"><defs><style>.a{fill:#666;}.b{fill:#ccd5c4;}</style></defs><ellipse class="a" cx="92.84" cy="91.98" rx="92.84" ry="91.98"/><path class="b" d="M73.9,40.46c3.38,3.58,3.94,8.21,4.41,12.75.52,5.07.61,10.18.9,15.27,0,.57.17,1.14.25,1.71l.48.1a5.54,5.54,0,0,0,.71-1.5,42.76,42.76,0,0,0,.42-4.93,62.59,62.59,0,0,0-2.42-19.19,1.81,1.81,0,0,1,.32-1.5,1.55,1.55,0,0,1,1.39-.24c2.67,1.18,5.33,2.41,8,3.72,1.3.66,1.6,2,1.83,3.35a46.37,46.37,0,0,1-.51,18.44A21.6,21.6,0,0,0,89.31,71a2.91,2.91,0,0,0,.17.71c.36-.4.72-.61.82-.92,2-6.14,3-12.36,1.45-18.8a2.1,2.1,0,0,1,.46-1.62c.17-.2,1.11,0,1.43.27,2.16,2,4.3,4,6.3,6.12a4.33,4.33,0,0,1,.86,2.47,36,36,0,0,1-5.72,23.48,14.29,14.29,0,0,0-.77,1.51l.36.32a5.49,5.49,0,0,0,1.21-.89,35.64,35.64,0,0,0,6.05-13.14c.48-1.87.67-3.82,1.12-5.7a7.34,7.34,0,0,1,1.07-1.84c.53.4,1.28.69,1.57,1.22,2.24,4.26,3.57,8.71,2.69,13.62a27.11,27.11,0,0,1-3.18,9.33,10.71,10.71,0,0,1-10,4.91,6.16,6.16,0,0,0-1.56.24,5.62,5.62,0,0,0,.51,1.53,39.14,39.14,0,0,1,6.94,18.51,4.49,4.49,0,0,0,.62,1.29,7.05,7.05,0,0,0,1.13-.87c2.14-2.52,4.19-5.12,6.41-7.57,1.38-1.53,3.1-2.77,4.49-4.3a3.89,3.89,0,0,0,.77-2.42,33.14,33.14,0,0,1,5.76-19.53c3.42-4.94,8.32-7.69,14-9.35,6.92-2,13.93-1.58,20.95-.85a2.85,2.85,0,0,1,.29,0c4.78.41,4.07,1.67,3.5,5.51-.37,2.5-1.21,4.93-1.81,7.4C155.57,88.1,153,94,147.76,98.39a21.51,21.51,0,0,1-12.08,4.71,59.61,59.61,0,0,1-16-.65c-2.8-.48-4.62,0-6.55,2-4,4.2-8.2,8.25-11,13.47-.78,1.49-.53,1.93,1.17,1.93q9,0,17.89,0c2.35,0,3.33,1.21,2.62,3.42-.48,1.47-1.13,2.89-1.66,4.35a6.7,6.7,0,0,0-.38,1.65c-.77,6.81-1.48,13.63-2.32,20.43a21.51,21.51,0,0,1-1.44,6.42,5.75,5.75,0,0,1-5.61,3.46c-8-.12-16.09,0-24.13,0a6.81,6.81,0,0,1-7-6.13c-.37-2.76-.63-5.54-.94-8.31-.59-5.31-1.07-10.64-1.85-15.92-.3-2-1.35-3.91-2-5.88s.42-3.44,2.53-3.44c6.06,0,12.11,0,18.17,0,1.2,0,1.82-.3,1.86-1.66a39,39,0,0,0-5.88-21.86c-.2-.33-.71-.47-1.07-.7a3.43,3.43,0,0,0-.38,1,10.62,10.62,0,0,1-6.28,9.56,22.94,22.94,0,0,1-18.83,1.11,18.94,18.94,0,0,1-3.34-1.81,1.42,1.42,0,0,1-.58-1.14,1.47,1.47,0,0,1,.94-.88c1.83-.44,3.69-.76,5.54-1.17a36,36,0,0,0,13.89-6,7.13,7.13,0,0,0,1.07-1.24l-.32-.4a13.21,13.21,0,0,0-1.25.62c-6.17,4.07-13,5.8-20.33,6.07a10.42,10.42,0,0,1-9.07-4.14c-.93-1.13-2-2.18-2.87-3.33-.27-.34-.5-1.16-.34-1.31A2,2,0,0,1,51.57,92a23.79,23.79,0,0,0,10,.58c2.88-.39,5.71-1.21,8.55-1.86.22-.06.39-.33.59-.5l-.08-.45a25.75,25.75,0,0,0-3.18.32,49.72,49.72,0,0,1-17.75.37,4.51,4.51,0,0,1-3.78-2.79c-1-2.37-2.17-4.71-3.19-7.09a1.38,1.38,0,0,1,.16-1.27,2.06,2.06,0,0,1,1.5-.4c1.67.31,3.31.77,5,1.14A60.13,60.13,0,0,0,67.1,81.09a19.89,19.89,0,0,0,2.9-.66l0-.64c-.59-.08-1.17-.21-1.76-.25-5.56-.37-11.13-.6-16.68-1.13a55,55,0,0,1-7.18-1.61c-2.55-.61-3.61-2.53-4.24-4.83V69.41c.69-2.33,1.34-4.68,2.1-7a2.38,2.38,0,0,1,1.08-1.29c.75-.36.84-.72.52-1.43a2.37,2.37,0,0,1-.26-1.57A25.31,25.31,0,0,1,55.77,44.7c1.22-.62,2.51-1.71,4.08-.6.13.08.6-.26.87-.45a10,10,0,0,1,1.7-1.27c1.62-.71,3.3-1.29,5-1.92Zm3,24.5H77c-.07-1.41-.14-2.83-.2-4.25a61.19,61.19,0,0,0-2.24-15A2.56,2.56,0,0,0,72,43.62c-1.79,0-3.59.12-5.37.25-.37,0-1,.31-1,.55A2,2,0,0,0,66,45.61c.3.48.71.88,1,1.34,3.59,5,4.57,10.8,5.36,16.68a3.22,3.22,0,0,1-1.84,2.93c-1.32.23-2-.66-2.53-1.65a14,14,0,0,1-.58-1.44c-1.63-4-3.13-8-4.95-11.86a23.38,23.38,0,0,0-3.49-4.79,1.83,1.83,0,0,0-1.7-.29A23.65,23.65,0,0,0,46.74,56.6c-1.1,2-1.05,2.16.79,3.58a44.33,44.33,0,0,0,12.92,6.63c1.47.51,3,.92,4.39,1.56a2.14,2.14,0,0,1,1.48,2.46,2.91,2.91,0,0,1-2.9,1.82c-2.85-.47-5.72-.84-8.5-1.55a21.25,21.25,0,0,1-9.71-5c-.77-.73-1.43-.51-1.53.56-.17,1.73-.13,3.49-.3,5.23a2.38,2.38,0,0,0,1.87,2.77A49.63,49.63,0,0,0,50.32,76c6.58,1.25,13.25,1.3,19.92,1.29,1.4,0,2.56.64,2.73,2a3.17,3.17,0,0,1-1.12,2.59,9,9,0,0,1-4.19,1.46c-6.9.34-13.8.38-20.58-1.32-.32-.08-.86-.07-1,.12a1.24,1.24,0,0,0,0,1,19.8,19.8,0,0,0,1.83,3.51A3.5,3.5,0,0,0,50,88.07a80.2,80.2,0,0,0,10.71.66,55.6,55.6,0,0,0,15.78-3.26,3.58,3.58,0,0,1,1.92-.3,3.29,3.29,0,0,1,1.92,1.33c.24.47-.13,1.44-.51,2a4.26,4.26,0,0,1-1.71,1.21c-1.92.89-3.85,1.8-5.84,2.53A37.47,37.47,0,0,1,56.08,94.8c-.89-.08-1.33.54-.78,1.06,1.3,1.22,2.26,2.94,4.37,3.1A34.28,34.28,0,0,0,81.6,93.28a8.6,8.6,0,0,1,2.69-1.17,2.7,2.7,0,0,1,2.84,1.2c.69,1,.21,1.82-.39,2.58a9.59,9.59,0,0,1-1.55,1.63,39.53,39.53,0,0,1-15.06,6.94,5.89,5.89,0,0,0-1.34.74,5.18,5.18,0,0,0,1.42.87,20.07,20.07,0,0,0,10.65-.47c2.57-.81,5.16-1.73,6.88-4C90.3,98.27,90,94.69,88.42,91c-.39-.89-1.49-1.84-.51-2.81s2,0,3,.46c3.66,1.58,7.22,1.79,10.58-.77,1.9-1.44,2.74-3.55,3.55-5.68a20.72,20.72,0,0,0,.75-12.14c-.09-.41-.57-.74-.86-1.1a4.72,4.72,0,0,0-.73,1.09c-.66,2.11-1.15,4.29-1.93,6.35a29,29,0,0,1-5.95,10.06c-.9,1-1.9,1.64-3.24.85a2.86,2.86,0,0,1-1-3.52c.59-1.32,1.47-2.51,2.18-3.78a36.5,36.5,0,0,0,4.59-17.62A8.16,8.16,0,0,0,96,55.75c-.26-.24-.74-.25-1.12-.37a4.23,4.23,0,0,0-.32,1.11c0,1.13.17,2.27.1,3.39A41.27,41.27,0,0,1,92,72.59a65.74,65.74,0,0,1-3.6,7.35,2.14,2.14,0,0,1-1.84.88A3,3,0,0,1,85,79.16a3.31,3.31,0,0,1,.12-1.93c.67-2.51,1.51-5,2.1-7.51a48.69,48.69,0,0,0,1-17.88,5,5,0,0,0-3.11-4.34c-.73-.3-1.39-.8-2.13-1.1a1.53,1.53,0,0,0-1.17,0c-.18.1-.24.68-.16,1A65.91,65.91,0,0,1,83,67.72a12.28,12.28,0,0,1-1.67,4.71,2.1,2.1,0,0,1-3.31.32,5.68,5.68,0,0,1-1-2.69C76.81,68.38,76.92,66.67,76.92,65Zm23.52,62.94v0H82.86c-1.78,0-2,.21-1.85,1.95q1.29,11.7,2.65,23.38c.28,2.32,1.3,3.09,3.6,3.09q13,0,26.1,0c2.08,0,3.18-.83,3.44-3,1-8,1.84-15.95,2.77-23.93.14-1.2-.39-1.6-1.54-1.59C112.17,127.92,106.3,127.9,100.44,127.9Zm30.92-26.59a66.25,66.25,0,0,0,9.14-1.6c6.05-1.82,9.75-6.35,12.31-11.94,2-4.32,2.67-8.94,3.28-13.58,0-.36-.1-1-.31-1.09a1.64,1.64,0,0,0-1.29.18c-4.47,3-9,5.91-13.33,9.1-7.23,5.3-14.34,10.78-21.48,16.22-.32.24-.42.77-.63,1.16a3.65,3.65,0,0,0,1.08.51C123.51,100.61,126.9,100.91,131.36,101.31Zm14.28-31,0-.2c-3,.38-5.92.62-8.84,1.18a25.26,25.26,0,0,0-10.18,4.42,22.26,22.26,0,0,0-8.17,11.8,70,70,0,0,0-1.69,8.46,1.38,1.38,0,0,0,.45,1.19c.28.14.87-.13,1.22-.37.58-.4,1.06-.94,1.62-1.37,5-3.83,9.88-7.76,15-11.44,5.55-4,11.28-7.76,16.9-11.66a4.41,4.41,0,0,0,.85-1.15,4.23,4.23,0,0,0-1.3-.57C149.51,70.42,147.57,70.36,145.64,70.28Zm-45.43,51.91h-20c-1.12,0-1.47.38-1.21,1.58.36,1.59,1.35,1.84,2.71,1.84h37.18a5.37,5.37,0,0,0,1.13-.07c.8-.18,2-1.86,1.6-2.52a2.4,2.4,0,0,0-1.83-.78C113.27,122.17,106.74,122.19,100.21,122.19ZM61.88,45.57c2.31,4.34,4.63,8.72,6.95,13.09C69.92,55.72,64.8,46.14,61.88,45.57ZM58.7,69.22,45.24,62.08C45.56,65.11,55.52,69.78,58.7,69.22Z" transform="translate(-6.9 -8.05)"/></svg>